<svg width="15" height="16" viewBox="0 0 15 16" fill="none" xmlns="http://www.w3.org/2000/svg">
<path fill-rule="evenodd" clip-rule="evenodd" d="M0.5 15C0.5 14.4477 0.947715 14 1.5 14H13.5C14.0523 14 14.5 14.4477 14.5 15C14.5 15.5523 14.0523 16 13.5 16H1.5C0.947715 16 0.5 15.5523 0.5 15ZM3.79289 7.29289C4.18342 6.90237 4.81658 6.90237 5.20711 7.29289L6.5 8.58579L6.5 1C6.5 0.447716 6.94771 2.41411e-08 7.5 0C8.05228 -2.41411e-08 8.5 0.447715 8.5 1L8.5 8.58579L9.79289 7.29289C10.1834 6.90237 10.8166 6.90237 11.2071 7.29289C11.5976 7.68342 11.5976 8.31658 11.2071 8.70711L8.20711 11.7071C8.01957 11.8946 7.76522 12 7.5 12C7.23478 12 6.98043 11.8946 6.79289 11.7071L3.79289 8.70711C3.40237 8.31658 3.40237 7.68342 3.79289 7.29289Z" fill="white"/>
</svg>
